<?xml version="1.0" ?><svg data-name="Layer 1" id="Layer_1" viewBox="0 0 16 16" xmlns="http://www.w3.org/2000/svg"><title/><path d="M2.586,4H4V2.586L2.707,1.293A1,1,0,0,0,1.293,2.707Z"/><path d="M6,7H2A1,1,0,0,1,2,5H5V2A1,1,0,0,1,7,2V6A1,1,0,0,1,6,7Z"/><path d="M12,4h1.414l1.293-1.293a1,1,0,0,0-1.414-1.414L12,2.586Z"/><path d="M14,7H10A1,1,0,0,1,9,6V2a1,1,0,0,1,2,0V5h3a1,1,0,0,1,0,2Z"/><path d="M4,12H2.586L1.293,13.293a1,1,0,1,0,1.414,1.414L4,13.414Z"/><path d="M6,15a1,1,0,0,1-1-1V11H2A1,1,0,0,1,2,9H6a1,1,0,0,1,1,1v4A1,1,0,0,1,6,15Z"/><path d="M13.414,12H12v1.414l1.293,1.293a1,1,0,0,0,1.414-1.414Z"/><path d="M10,15a1,1,0,0,1-1-1V10a1,1,0,0,1,1-1h4a1,1,0,0,1,0,2H11v3A1,1,0,0,1,10,15Z"/></svg>