<?xml version="1.0" ?><svg data-name="Layer 1" id="Layer_1" viewBox="0 0 16 16" xmlns="http://www.w3.org/2000/svg"><title/><path d="M2,7A1,1,0,0,1,1,6V2A1,1,0,0,1,2,1H6A1,1,0,0,1,6,3H3V6A1,1,0,0,1,2,7Z"/><path d="M5.414,4H4V5.414L5.293,6.707A1,1,0,0,0,6.707,5.293Z"/><path d="M12,4H10.586L9.293,5.293a1,1,0,1,0,1.414,1.414L12,5.414Z"/><path d="M14,7a1,1,0,0,1-1-1V3H10a1,1,0,0,1,0-2h4a1,1,0,0,1,1,1V6A1,1,0,0,1,14,7Z"/><path d="M4,12H5.414l1.293-1.293A1,1,0,0,0,5.293,9.293L4,10.586Z"/><path d="M6,15H2a1,1,0,0,1-1-1V10a1,1,0,0,1,2,0v3H6a1,1,0,0,1,0,2Z"/><path d="M10.586,12H12V10.586L10.707,9.293a1,1,0,0,0-1.414,1.414Z"/><path d="M14,15H10a1,1,0,0,1,0-2h3V10a1,1,0,0,1,2,0v4A1,1,0,0,1,14,15Z"/></svg>